<?xml version="1.0" encoding="UTF-8"?>
<svg id="Layer_1" data-name="Layer 1" xmlns="http://www.w3.org/2000/svg" viewBox="0 0 604.54689 604.54777">
  <defs>
    <style>
      .cls-1 {
        fill: #fff;
      }
    </style>
  </defs>
  <path class="cls-1" d="M483.60979,301.70886c0-2.94277-.08921-5.9752-.17843-8.91666,23.62922-23.45122,2.67513-37.62806-7.22246-42.62233-2.22906-7.66765-5.08218-15.06898-8.29216-22.38109,13.19634-34.15043-13.55364-38.96496-24.43215-39.58859-3.92326-4.81497-8.11373-9.45151-12.57228-13.9105-.8025-.80162-1.60499-1.60455-2.4967-2.40749-.17799-38.07413-29.69232-32.01059-39.50069-28.88982-7.48966-4.10169-15.33662-7.57975-23.36157-10.52209-11.59179-31.92137-35.57743-15.7827-42.8891-9.89759-6.33075-.62319-12.75071-.98049-19.17067-.98049-2.4967,0-5.08261.08965-7.57931.17799-25.50141-24.60927-40.57083-1.5149-45.20693,7.66897-8.1146,2.49714-16.05034,5.52781-23.80765,9.18387-33.61602-11.41336-37.45006,14.00015-37.71727,23.8973-4.54776,3.74439-8.91666,7.66765-13.10757,11.859-2.31871,2.31783-4.54776,4.63654-6.6876,7.04403-11.14572.71328-35.13136,5.7959-26.48234,38.34177-3.92326,7.66765-7.31167,15.60339-10.07601,23.71799-11.68057,4.45855-31.92137,16.58519-8.91666,43.06797-.44564,4.99296-.62407,10.07514-.62407,15.15775v3.12033c-9.18387,8.20338-26.8392,28.9786,6.24197,44.40531,1.78298,6.50874,3.92326,12.83948,6.33031,19.08102-4.90375,12.83992-12.57228,43.42526,24.69936,43.24596,3.74483,4.81497,7.75731,9.54116,12.03743,14.00015-.17843,13.73119,3.38841,42.88866,39.41191,31.38565,5.97389,3.47806,12.03699,6.68804,18.36817,9.45151,3.47762,11.05738,15.87147,38.16378,49.66548,13.82085,7.31167.89258,14.71256,1.42656,22.20266,1.51621,8.47059,8.64858,29.6031,24.69892,46.4555-5.70624,10.7893-2.76434,21.22173-6.59839,31.29731-11.32502,11.94821,4.45899,38.78785,10.34278,40.48161-26.30435,3.47762-3.03111,6.86603-6.15188,10.16523-9.45064,1.8722-1.87307,3.65562-3.74527,5.34982-5.61747,37.00399-2.0515,32.36745-30.3177,28.89026-41.99739,3.20954-6.42084,5.97389-13.01791,8.38137-19.79605,33.97244-13.19547,17.74411-36.20149,9.54073-45.11816.62407-4.81453.8025-9.71916.8025-14.71168ZM428.4611,287.65798l-14.22319,15.52905-10.7167,12.17081c-.03236.67698-.08921,1.36577-.11371,2.03838-.09228,2.69743-.15919,5.28247-.04898,7.89025.10146,2.64495.28033,5.36688.48981,8.10673,1.75106,22.01111,4.24163,44.42587,3.89177,67.22285-.10365,5.70974-.39884,11.45491-1.07801,17.25824-.04155.34418-.09971.69098-.14432,1.0369-4.54733,4.06627-9.34305,7.85614-14.34433,11.374,2.89292-9.01506,3.60664-19.52534,3.78113-29.84713.23178-21.78894-2.28897-43.74888-4.19222-66.10548-.12595-1.55251-.24009-3.11683-.34199-4.69252-2.06156,2.75297-4.13449,5.48364-6.1908,8.21213l-9.94482,13.28556c-6.51049,8.89392-12.6628,17.98332-18.19674,27.33862-5.4902,9.36973-10.34541,19.0539-13.79286,29.10455-3.40984,10.01654-5.40492,20.50758-4.70083,30.63082.33805,5.03451,1.4305,9.93607,3.37879,14.20132.16968.37173.38747.69885.57202,1.05746-3.67267.97699-7.40307,1.80616-11.17677,2.51551-2.32614-5.55537-3.49774-11.32896-3.86378-17.0129-.76751-12.16294,1.65353-23.96377,5.4351-34.96517,3.87122-11.0014,9.16987-21.28077,15.1923-30.95838,6.9793-11.21569,14.98107-21.60789,23.32877-31.58201,6.45976-8.34464,13.03803-16.60093,19.76018-24.74134.18805-5.66732.61313-11.17983,1.02772-16.71945.90658-11.19513,2.02482-22.31724,3.22179-33.42797l1.88226-16.65166,1.02335-8.32146.53179-4.17166.21342-1.60455c-10.10051,9.88447-20.17083,19.79823-30.16594,29.79028-25.63742,25.70215-50.85895,51.81188-75.62871,78.35545-.0258.57027-.07478,1.15236-.09577,1.72001-.09228,2.697-.15919,5.28247-.04854,7.89157.10102,2.64495.28033,5.36688.48981,8.10673,1.75062,22.01067,4.2412,44.42455,3.89134,67.22241-.10365,5.70887-.39884,11.45491-1.07801,17.25867-.49287,4.07545-1.19696,8.20294-2.29597,12.3488-4.00504-.20423-7.95454-.6057-11.8743-1.106,2.59422-8.75747,3.2957-18.79107,3.46276-28.68078.23178-21.7872-2.28897-43.74757-4.19178-66.10504-.12639-1.5512-.24053-3.11552-.34243-4.69252-2.06112,2.75385-4.13405,5.48496-6.1908,8.21344l-9.94482,13.28512c-6.51049,8.89436-12.6628,17.98332-18.1963,27.33775-5.49064,9.37104-10.34585,19.0539-13.79329,29.10543-.65687,1.92949-1.20746,3.8874-1.75018,5.84531-3.33899-1.70208-6.62638-3.48856-9.82193-5.4163.40934-1.33297.7662-2.69087,1.21708-4.00154,3.87122-11.0014,9.169-21.28208,15.19187-30.95838,9.6693-15.53954,21.28033-29.51345,33.09341-42.94595.13382-.33018.30875-.64681.55147-.93151,3.10458-3.60795,6.27258-7.15992,9.40297-10.74556.01225-.48718.01487-.98486.02886-1.46548.18411-5.75173.61969-11.33814,1.03996-16.95429.90658-11.19645,2.02482-22.31767,3.22179-33.42928l1.88269-16.6521,1.02291-8.31971.53223-4.17166.21298-1.60455c-10.10007,9.88403-20.17083,19.79692-30.16638,29.79028-25.65535,25.72008-50.89525,51.8508-75.6825,78.41361-.04417.90439-.10715,1.81753-.14301,2.7193l-.06604,3.98973c.01399,1.28618.05423,2.60647.11589,3.95081.13251,2.69612.33149,5.45041.54491,8.21082l1.22539,14.3159c-4.79354-5.45128-9.21667-11.23012-13.22346-17.3129-.07303-1.06533-.15875-2.11885-.22347-3.19336-.35817.38835-.71897.77407-1.07889,1.16154-1.29624-2.03576-2.54568-4.103-3.7492-6.2013,1.55032-1.76287,3.09409-3.53229,4.63829-5.30172.41983-11.52925,1.4423-22.70733,2.52032-33.93352,1.09682-11.21613,2.31871-22.39683,3.63025-33.57097l1.00279-8.38225.52086-4.20053.10102-.78194-5.30521,3.79469c-4.60112,3.26246-9.14932,6.59883-13.79111,9.79481-4.45636,3.00356-8.8843,6.04648-13.32754,9.06317-.33237-3.70154-.52392-7.44068-.59433-11.21219,2.69-1.98503,5.37912-3.97268,8.07918-5.94371,4.47604-3.33506,8.848-6.80131,13.27506-10.19497l6.61807-5.11454,6.49999-5.25405c.84841-.68485,1.69377-1.37321,2.54087-2.05937.3035-1.11825.60745-2.23824.91401-3.37135,2.99219-10.87676,6.05086-21.68967,9.42396-32.52226.8576-2.71274,1.72351-5.41892,2.69175-8.19026l.75789-2.10485c.2589-.70934.62275-1.54595.93632-2.30996l.69972-1.71214c.21429-.47931.45657-1.21227.68442-1.81228,1.84858-5.07868,3.62894-10.42325,5.38962-15.7136l10.52427-31.95242c.64593-1.92774,1.28312-3.84542,1.92161-5.76572,5.12985-3.34949,10.46261-6.41165,15.98605-9.15282-2.14421,6.20086-4.2237,12.5163-6.30276,18.75258l-10.49541,31.97823c-1.77686,5.35113-3.53098,10.6546-5.51338,16.11769-.26896.71066-.45832,1.31329-.80118,2.12147l-.89608,2.17876c-.20773.53791-.41546.98355-.63675,1.59143l-.66386,1.85252c-.87946,2.52469-1.72132,5.16177-2.55049,7.79667-1.91024,6.1685-3.75489,12.3956-5.56455,18.63932,10.74687-9.0308,21.25715-18.30301,31.29031-28.03791,7.98384-7.67815,15.59508-15.69129,22.85865-23.96333l5.32402-6.29707,5.11935-6.44926c3.38185-4.37939,6.45495-8.73561,9.9352-13.49198l2.51201-3.31538c.7627-1.03297,1.50834-2.09174,2.2225-3.18199,1.43618-2.17352,2.7779-4.44193,4.03565-6.76982,2.51682-4.65403,4.68596-9.54772,6.52317-14.54593,1.30323-3.57908,2.3585-7.22858,3.27033-10.8925,3.23447-.19986,6.486-.33499,9.77076-.33499.89346,0,1.77424.05204,2.6642.06779-1.13486,5.22912-2.60909,10.32966-4.42269,15.29508-2.03838,5.52563-4.43056,10.91043-7.25307,16.12031-1.41169,2.60472-2.92834,5.16702-4.58712,7.67028-.82392,1.25382-1.6942,2.48927-2.59772,3.71072l-2.57105,3.3871c-3.14788,4.29105-6.55335,9.09422-10.03403,13.58688l-5.34938,6.72172-5.54574,6.54547c-7.5452,8.57467-15.40791,16.82572-23.6021,24.68973-14.29841,13.81953-29.35601,26.74124-45.0097,38.83114-.92888,3.42077-1.82978,6.83017-2.58504,10.02878l-.13907.65861c-.05029.23528-.09228.64287-.13863.95468l-.27027,2.04494-.53004,4.14717-1.02641,8.31883c-1.34522,11.10155-2.60166,22.21578-3.72909,33.32126-.60745,6.06616-1.18559,12.15157-1.66578,18.20417,35.41343-39.7902,72.34133-78.23168,110.05029-115.82519l4.50272-15.83824c1.57175-5.37606,3.16931-10.74163,4.85695-16.12162.8541-2.69437,1.71476-5.38,2.683-8.13691l.75395-2.08911.94113-2.30603.70541-1.69158c.22479-.52479.4675-1.21839.70016-1.81884,3.74746-10.16348,7.25919-20.85044,10.83172-31.3581,1.96185-5.78409,3.91495-11.56424,5.90173-17.35357,4.10738.61969,8.14828,1.43837,12.14457,2.37119-2.1499,6.28002-4.27575,12.59021-6.40116,18.9004-3.57559,10.58331-6.98542,21.07173-10.91962,31.81467-.26896.69885-.4815,1.32248-.79768,2.07993l-.90264,2.16171-.628,1.56432-.65818,1.83983c-.87247,2.49801-1.70776,5.11716-2.52994,7.7315-1.06533,3.42208-2.07337,6.89052-3.09365,10.34934,11.47852-11.29266,22.99728-22.53984,34.58076-33.7013,7.96285-7.76649,15.94451-15.5238,23.70531-23.37469,1.73488-1.76418,3.46888-3.54016,5.17183-5.32008,3.52835,1.87176,6.96749,3.88434,10.32879,6.01106-2.41405,2.54393-4.84077,5.0227-7.28587,7.47436-7.9576,7.92874-16.00748,15.63313-24.0473,23.35676-16.22177,15.52905-32.40812,31.06115-48.50263,46.67198l-.11458.40671c-1.45061,5.30696-2.94277,10.75999-4.16029,15.88503-.15044.70541-.19067.80162-.29913,1.51884l-.26327,2.01389-.51605,4.11568-.99798,8.26023-1.94523,16.53621c-1.24376,11.02589-2.40836,22.0614-3.35474,33.06149-.06472.80818-.12289,1.61636-.18761,2.42542,35.39025-39.75871,72.29191-78.17308,109.97419-115.74035l4.50272-15.83867c.95468-3.26596,1.96272-6.53104,2.95152-9.79569,5.72461,5.59035,11.03857,11.59922,15.85529,18.00782-3.74877,3.61976-7.52946,7.2159-11.26817,10.84309l-.11458.40671c-1.45061,5.3074-2.94277,10.76131-4.16073,15.88634-.15.70453-.19067.80031-.29913,1.51752l-.26283,2.0152-.51605,4.11437-.99798,8.26023-1.94523,16.53752c-1.24332,11.02501-2.40836,22.05878-3.35474,33.05755,5.67519-6.57128,11.41292-13.09051,17.28535-19.49298,9.33606-10.10094,18.84661-20.04751,28.54346-29.81215,1.10687,3.24016,2.12322,6.52317,3.01931,9.85691-8.42248,8.57336-16.73126,17.26217-24.88478,26.09662Z"/>
  <path class="cls-1" d="M75.12404,251.89468c.16881.10627.4417.04679.50074-.19898l2.51332-10.16654c.04461-.18499-.04854-.33543-.19942-.24403l-2.26448.53966-33.18569-8.19901.21123-.85279c.5261-2.38781.91707-3.97224,1.27787-5.17489.49812-1.75106.90483-2.6209,1.55776-3.68492.18062-.21473.04461-.44301-.19942-.50205-1.23414-.24009-2.43591-.86153-4.08157-1.52408-3.10721-1.28618-2.75822-1.9085-3.16843-1.30192l-7.57975,30.68942c.07741.72859.07478-.04723,3.40853.32581,1.77992.11677,3.11902.18936,4.3221.55016.24228.05904.485-.13776.42333-.41152-.09534-1.18603-.04942-2.14509.3245-3.92632.24009-1.23282.64549-2.87761,1.27918-5.17489l.22435-.91445,31.78449,7.85221,2.85137,2.31915Z"/>
  <path class="cls-1" d="M58.71115,179.69112l31.69528,17.9584,2.062,2.97076c.157.23266.41371.1605.50686-.00131l5.19282-9.16506c.09184-.164.01356-.27989-.12551-.28951l-2.46609-.10015c-3.16231-1.79042-8.97701-5.01352-10.01348-5.59866.83398-1.47423,1.64479-3.03461,2.32396-4.738l10.12937,1.20046c.61401.05685,1.59624.10977,2.5986.2449l-.03105.05554,1.69377,1.46461c.10889.06035.24884.06779.31138-.0398l5.13028-9.05529c.09315-.16531-.06254-.39666-.28951-.38222l-3.74046.11458c-1.81228-.23441-3.88128-.39709-5.7819-.60832-3.85023-.45132-6.37054-.58383-8.19026-.67698.21604-4.70651-1.58881-9.40516-7.48048-12.74502-11.8918-6.73615-18.26759,2.48096-23.30866,11.36832l-4.10825,7.25788c-.1242.21954.03236.45088.22566.48981l3.66568.27508ZM78.23343,167.61914c8.51082,4.82415,1.60805,14.45847,1.60805,14.45847l-13.9105-7.88238c3.12164-5.50945,6.41078-9.91464,12.30245-6.57609Z"/>
  <path class="cls-1" d="M98.53372,119.65705l27.70773,25.65054,1.32248,3.2782c.05423.21954.36561.25321.4933.11327l7.15861-7.73063c.0844-.09403.07741-.27027-.05642-.31006l-2.37818-.66211-27.66093-25.60856-1.37277-3.40853c-.09665-.17493-.36561-.25321-.53573-.06866l-7.15729,7.7315c-.08703.09315-.0328.31269.10102.35249l2.37818.66255Z"/>
  <path class="cls-1" d="M158.99155,114.55169l.55234,3.49074c.00262.22566.30044.32712.45613.22085l8.70937-5.92403c.10365-.07128.13601-.24534.01443-.31138l-2.16827-1.18253-4.79485-7.05015c9.51973-6.62857,12.48787-16.53577,5.99881-26.07519-4.97328-7.30948-12.12008-9.12046-23.376-1.92074l-.10277.06997-8.65951,5.88948c-.15438.10715-.15306.33281-.03018.40147l2.16696,1.18035,21.23354,31.21116ZM161.16463,82.96531c3.20954,4.71613,2.53387,10.63579-3.53185,14.76329l-10.26319-15.08822c7.15511-4.86701,10.93886-3.87515,13.79504.32493Z"/>
  <path class="cls-1" d="M213.43658,83.41751l-.36561,3.65343c.00394.19898.20642.39359.38397.33062l22.03297-7.83034c.56721-.46707-.01924-.05816-1.58269-2.96114-.84492-1.62992-1.56038-2.70531-1.90062-3.84892-.04592-.3175-.32581-.35336-.53922-.20992-.97611.81299-1.81972,1.24769-3.49074,1.97409l-7.85702,2.7919-10.9979-30.95576.36429-3.65474c-.0035-.19898-.20773-.39447-.38354-.32931l-9.98461,3.54454c-.17712.06516-.17231.26458-.07347.35861l1.80004,1.69027,12.59414,35.44667Z"/>
  <path class="cls-1" d="M268.74227,68.62011l-1.18822,3.32762c-.10627.20161.10583.43208.2917.41415l23.34714-2.28416c.66255-.31488-.00612-.06035-.82043-3.25634-.42814-1.78823-.86153-3.00356-.91576-4.1979.03149-.3175-.22916-.41765-.47275-.33193-1.14536.55278-2.00689.76401-3.86728,1.07058l-5.30653.51998-3.12033.30525-1.20134-12.29851c4.99384-.48893,6.30407-.61663,7.45293-.47537.3245.0949.58646.19286.77188.17493.12682-.01093.18237-.08003.2331-.21123.08309-1.07757.29695-1.47685,1.19565-7.11181l-.01225-.12639c-.02886-.25365-.23266-.41983-.54622-.39097-.18586.02055-.95468.53704-1.45542.58383-1.24507.12551-4.60899.51648-8.29391.87859l-.98574-10.11362,3.12033-.30525c2.42979-.29913,4.0514-.45832,5.30521-.51998,1.88094-.1172,2.77134-.01706,3.99367.24009.26327.10146.49374-.11108.40059-.41634-.17843-1.1786.00612-2.52032.08572-4.29193.17624-3.3578.88209-3.23841.17012-3.42033l-22.97323,2.24392c-.18674.01706-.2917.21866-.15569.33062l1.26213,1.95616,3.68492,37.70634Z"/>
  <path class="cls-1" d="M390.52648,87.17852c.73471-.00743.02143-.05904.62844-3.30226.36561-1.80048.48631-3.08665.93982-4.18959.16443-.27508-.03105-.47756-.28951-.50293-1.26912.02187-2.14028-.15219-3.95519-.65774l-5.03145-1.76636-2.95852-1.03778,4.09426-11.65783c4.73319,1.66053,5.97739,2.0983,6.95919,2.71012.25365.22085.44913.42333.62494.485.1207.04111.2003.00481.30176-.09271.53092-.94375.89171-1.21883,4.08332-5.94634l.0398-.11808c.07959-.2414-.03499-.4815-.33193-.58646-.17843-.06166-1.09201.08222-1.56519-.0844-1.17991-.41021-4.39645-1.47554-7.88588-2.70049l3.36611-9.58621,2.95852,1.0404c2.32877.75264,3.86597,1.29099,5.02795,1.76374,1.75674.68442,2.52294,1.15367,3.52179,1.90412.19549.2003.49505.10627.53966-.20992.33543-1.14405,1.06752-2.28416,1.88707-3.85722,1.57438-2.97207,2.16214-2.56405,1.59493-3.03111l-21.77626-7.64841c-.17843-.06385-.35817.07478-.28208.23397l.321,2.30603-12.55347,35.74318-2.48052,2.52075c-.18237.13382-.08703.43295.09053.4968l22.13093,7.77174Z"/>
  <path class="cls-1" d="M429.51068,107.65286l.19898-2.4604,19.89401-32.00184,3.08622-1.99202c.15219-.1277.17755-.40671-.03586-.54054l-8.94334-5.55886c-.10715-.06604-.31225.02536-.3245.16793l-.20161,2.45778-19.92899,32.05126-2.96551,1.92205c-.20511.09534-.17755.40671-.01837.50424l8.94552,5.56367c.10627.06516.27901.02536.29345-.11327Z"/>
  <path class="cls-1" d="M478.53111,143.15376l12.166-12.22285,2.34801-.75745c.13513-.0433.13251-.22347.00131-.35467l-7.42319-7.38908c-.17843-.17755-.44257-.08572-.53179.08921l-1.23326,3.46144-8.4496,8.49202c-1.90762-.04242-3.23841-.30394-4.79354-1.85208-4.4463-4.42794-.85935-6.96312,6.79388-14.65002,6.23934-6.26821,10.79542-10.75562,16.57382-5.0039,3.46625,3.45226,4.00548,6.73134,4.58581,7.9283.13164.21998.35598.26327.53223.08572l6.41515-6.44314c.17624-.17843.13164-.40059-.09009-.53179l-2.04188-.70585c-1.02422-1.81622-2.49145-3.80912-5.02401-6.32856-10.93274-10.88332-20.31253-1.46373-26.81733,5.06993-10.70708,10.75562-15.97118,16.04378-5.83832,26.13073,3.28914,3.27339,8.43997,6.27783,12.8268,4.98203Z"/>
  <path class="cls-1" d="M496.15058,172.77129c-.22654-.01312-.38004.22085-.25452.4382l5.24486,9.13226c.06298.10889.23441.15438.31138.03892l1.34041-2.07424,11.36482-6.52536,6.05829,10.54789-10.22339,5.87024-3.63025.35117c-.22566-.01574-.38047.21823-.25365.43776l5.24618,9.13139c.06035.10846.2331.157.31006.04111l1.34041-2.07424,32.67751-18.76833,3.62938-.35117c.22697.01574.38397-.21823.25584-.43558l-5.24618-9.13358c-.06254-.10846-.28689-.1242-.36429-.00831l-1.34172,2.07162-16.583,9.52455-6.05829-10.54527,15.49625-8.90223,3.62938-.34986c.22654.01574.38091-.21823.25802-.43558l-5.2488-9.13358c-.06254-.10889-.28689-.1242-.36429-.00875l-1.34172,2.07206-32.62328,18.73771-3.62938.35117Z"/>
  <path class="cls-1" d="M566.38267,220.19678c-.40759-.60788-.0433.07741-3.16581,1.30323-1.62904.72727-2.84744,1.28837-4.07851,1.52977-.24359.06035-.36648.34986-.18324.56371.63456,1.00367,1.04477,1.87351,1.54464,3.62325.36429,1.20265.7697,2.84481,1.28355,5.17358l.22697.91358-31.77881,7.8885-3.60532-.72159c-.19767-.01574-.41021.1675-.34986.41152l2.52294,10.16523c.04461.18324.19811.27508.28864.12333l1.75193-1.53502,33.18044-8.23356.20992.85191c.65162,2.35894,1.04521,3.94163,1.28618,5.17489.37654,1.77948.42246,2.73898.34505,3.98755-.06254.27158.16443.40934.40803.34899,1.20396-.36211,2.55793-.37654,4.3221-.55759,3.34686-.31356,3.33243.40322,3.4094-.32581l-7.61824-30.68549Z"/>
  <path class="cls-1" d="M91.65762,411.6227l-.61532-1.09069-2.5002-4.42094c-.06385-.11064-.2882-.12508-.36561-.00962l-1.35615,2.06112-32.8004,18.55229-3.57996.29432c-.2812.01181-.38266.21691-.25933.43427l.61882,1.09069c.02886.05292,1.29449,2.29247,2.03663,3.6027l.52479.9267c7.99259,14.13616,17.66451,17.09949,31.03448,9.53198,13.09969-7.40351,15.28852-16.7833,7.26225-30.97281ZM79.7995,435.61664c-8.67788,4.90856-14.45978,3.85635-18.56541-3.40503l25.37984-14.35089c4.07458,7.20321,1.91855,12.81893-6.81443,17.75591Z"/>
  <path class="cls-1" d="M129.9045,465.19482l-7.05102-7.82378c-.08309-.09403-.30788-.06254-.35817.06779l-.87597,2.3069-28.03835,25.26788-3.38316,1.02335c-.22347.03149-.28514.33762-.15831.48019l7.05146,7.82334c.0844.09403.26021.10146.31356-.02668l.87334-2.30909,27.99243-25.22459,3.51742-1.06183c.18105-.07741.2847-.33805.11677-.52348Z"/>
  <path class="cls-1" d="M169.88668,499.86173c-1.48516-1.37058-2.78577-3.54016-5.89648-5.76966-3.56771-2.55793-11.7641-5.65639-17.57617,2.44684-7.34666,10.24876,8.33283,21.1054,3.14219,28.34229-2.37687,3.31319-5.32489,1.50834-7.46648-.02886-4.63785-3.32281-4.97941-12.21279-5.74429-12.76295-.3573-.25584-.66255.06472-.92057.42202-.0726.10146-.18105.25365-.25452.3573l-7.03922,9.92514c-.10977.15219-.03018.36211.2086.45832l2.8728.51648s2.9454,4.50316,8.14434,8.23137c6.72915,4.82634,13.09007,3.05998,17.36757-2.90298,7.89332-11.01364-7.73544-21.83399-3.45838-27.79694,1.79304-2.49757,5.32708-2.04888,7.92612-.18368,2.24305,1.60718,4.59368,4.68421,4.77824,7.43981.02886.17406.10846.38616.26152.49462.25452.18368.78063.09927,1.25513-.56678l5.44647-7.59418c.14563-.20511.06604-.41502-.17624-.51167l-2.87061-.51648Z"/>
  <path class="cls-1" d="M200.62071,517.12522c-.73515-.01662.03367.08222-.77494,3.33768-.34986,1.74712-.59695,3.06479-1.11475,4.21102-.09053.23616.07347.49943.35336.47756,1.18865.06298,2.13328.23178,3.84935.83748,1.19084.40059,2.76522,1.0181,4.96235,1.9496l.87465.34286-11.9727,30.47557-2.67469,2.51944c-.12814.15175-.10408.43164.13032.52348l9.74889,3.83186c.17493.06779.33893-.00219.26808-.16618l-.23659-2.31696,12.50231-31.81467.81693.31837c2.30078.84011,3.81655,1.43356,4.96148,1.95004,1.67103.7264,2.47702,1.24507,3.44964,2.03182.18674.20511.43164.10146.52217-.13251.40059-1.19215,1.17554-2.30253,2.05019-3.84454,1.68327-2.90997,2.25617-2.48314,1.70732-2.96814l-29.42336-11.5638Z"/>
  <path class="cls-1" d="M261.67419,535.93116c-.1242-.01924-.27639.14694-.23266.28208l.78763,2.33839-5.63321,37.32892-1.96666,2.93927c-.15.16881-.00131.44389.18324.47056l10.41757,1.5735c.1242.01662.26764-.08965.22435-.21998l-.79025-2.33795,5.6249-37.2712,2.04538-3.05254c.09053-.17624.00481-.4417-.24272-.478l-10.41757-1.57307Z"/>
  <path class="cls-1" d="M328.76453,574.62323c.04461-.31619-.21254-.42683-.45963-.34986-1.1646.50686-2.09611.68529-3.90577.91226l-8.32889.48019-1.88226-32.81134,1.37539-3.40765c.05073-.19286-.08834-.43427-.27639-.42464l-10.58156.60832c-.18805.01181-.24009.20248-.17012.32318l1.2525,2.12847,2.15733,37.5677-1.37539,3.40984c-.05204.19067.0879.43427.27508.42246l23.35676-1.33953c.67305-.28951-.00262-.06254-.69141-3.28914-.35467-1.80266-.73996-3.03811-.74564-4.23026Z"/>
  <path class="cls-1" d="M391.01147,561.17498c-.03018-.31881-.30657-.36692-.52873-.23178-1.01591.76007-1.88094,1.15104-3.58696,1.79304l-7.99128,2.39393-9.42658-31.48448.55016-3.63419c.00569-.19549-.18586-.40059-.36692-.34724l-10.15342,3.0403c-.17974.05335-.18586.25365-.08921.35467l1.71082,1.77861,10.79279,36.04756-.55016,3.63156c-.00612.2003.18718.40322.36692.3503l22.41082-6.71122c.58864-.43689-.01706-.05554-1.43574-3.03811-.76007-1.66971-1.41913-2.78009-1.70251-3.94294Z"/>
  <path class="cls-1" d="M451.14219,536.98337c-1.12962-1.4458-2.03182-2.37731-2.57629-3.43914-.10233-.30132-.38135-.28208-.56809-.10365-.80949.97961-1.50572,1.52758-3.07091,2.57979l-4.61161,2.676-2.71449,1.5735-6.20086-10.68784c4.34135-2.51682,5.48146-3.17806,6.58308-3.52792.33456-.05073.61444-.06779.77713-.15919.10846-.06298.13032-.15219.12201-.28995-.37173-1.0181-.34418-1.46942-1.86651-6.96881l-.06429-.10889c-.12158-.2121-.37873-.27989-.65031-.12289-.16269.09403-.64768.8834-1.08107,1.13399-1.08807.62756-3.98624,2.3795-7.18747,4.2377l-5.10011-8.78634,2.7123-1.57569c2.08518-1.28137,3.49555-2.10179,4.61161-2.67644,1.65922-.8904,2.51332-1.16766,3.73302-1.44056.27989-.01924.40322-.30657.19199-.54753-.65293-.99929-1.04259-2.29247-1.70732-3.94075-1.23457-3.12514-.54316-3.30838-1.26562-3.18068l-19.9666,11.58567c-.164.09184-.17712.31837-.007.36429l1.96185,1.25469,19.01542,32.77066.30307,3.52573c-.01356.22435.27508.34724.43645.25103l20.29241-11.77153c.47188-.5624-.03149-.05554-2.10179-2.62527Z"/>
  <path class="cls-1" d="M504.93954,492.12542c-1.67234-.73865-3.61145-1.47948-5.373-2.21769-3.56553-1.52059-5.9459-2.35763-7.66547-2.96333,1.53589-4.45243,1.13049-9.46944-3.57865-14.33645-9.50399-9.82149-18.22036-2.78009-25.56614,4.32648l-5.99182,5.79896c-.17974.17362-.09621.4417.08003.5331l3.43739,1.2958,25.33173,26.17796,1.14055,3.43389c.0844.26808.34986.27027.485.13994l7.56969-7.3261c.13513-.12814.09184-.26327-.0398-.31138l-2.33576-.78938c-2.53037-2.61303-7.19709-7.34534-8.02364-8.19988,1.21489-1.17991,2.43241-2.44422,3.5664-3.88959l9.37629,4.01029c.57334.23178,1.50003.55759,2.42279.97043l-.0433.04548,1.21008,1.88226c.08572.08965.21866.13513.31006.05073l7.47742-7.2417c.13601-.13032.0516-.39578-.16925-.44389l-3.62063-.94594ZM479.87633,492.82252l-11.11729-11.48902c4.55126-4.40388,8.95034-7.70264,13.65991-2.83519,6.80131,7.02959-2.54262,14.32421-2.54262,14.32421Z"/>
  <path class="cls-1" d="M542.76527,443.02496l-8.85106-5.35944-.33324-.41765-17.49177-23.04757-1.32947-4.10475c-.06385-.25584-.31006-.33324-.44039-.11852l-5.6179,9.27877c-.09665.16137-.00131.36648.10758.43164l1.9531.88821,10.93536,14.38937-.13032.21254-17.81758-3.01406-1.69377-1.31504c-.07609-.12333-.33324-.05816-.3984.05073l-5.64764,9.33387c-.13164.21473.05029.39797.30875.33543l4.25082-.7264,28.53296,4.8071.5261.09884,7.72669,4.67415,2.03182,3.06479c.12814.15219.4054.17143.50424.01225l5.45391-9.01331c.09665-.16181.02405-.27727-.11589-.2917l-2.4639-.16925Z"/>
  <path class="cls-1" d="M302.27432,91.60908c-116.16149,0-210.6648,94.50331-210.6648,210.6648s94.50331,210.6648,210.6648,210.6648,210.6648-94.50331,210.6648-210.6648-94.50375-210.6648-210.6648-210.6648ZM302.27432,505.52556c-112.0738,0-203.25167-91.17831-203.25167-203.25167s91.17788-203.25167,203.25167-203.25167,203.25167,91.17788,203.25167,203.25167-91.17831,203.25167-203.25167,203.25167Z"/>
  <path class="cls-1" d="M521.17006,302.27388c0-120.6992-98.19654-218.89617-218.89574-218.89617s-218.89749,98.19697-218.89749,218.89617,98.19697,218.89574,218.89749,218.89574,218.89574-98.19522,218.89574-218.89574ZM302.27432,518.74202c-119.3601,0-216.46726-97.10716-216.46726-216.46813s97.10716-216.46595,216.46726-216.46595,216.46595,97.10584,216.46595,216.46595-97.10628,216.46813-216.46595,216.46813Z"/>
  <path class="cls-1" d="M302.27432,0C135.59981,0,0,135.59937,0,302.27388s135.59981,302.27388,302.27432,302.27388,302.27257-135.59937,302.27257-302.27388S468.94796,0,302.27432,0ZM302.27432,594.06679c-160.89524,0-291.79334-130.89767-291.79334-291.7929S141.37908,10.48054,302.27432,10.48054s291.79159,130.8981,291.79159,291.79334-130.89723,291.7929-291.79159,291.7929Z"/>
</svg>